<?xml version="1.0" encoding="UTF-8" standalone="no"?>
<!DOCTYPE svg PUBLIC "-//W3C//DTD SVG 1.1//EN" "http://www.w3.org/Graphics/SVG/1.1/DTD/svg11.dtd">
<svg width="100%" height="100%" viewBox="0 0 480 480" version="1.1" xmlns="http://www.w3.org/2000/svg" xmlns:xlink="http://www.w3.org/1999/xlink" xml:space="preserve" xmlns:serif="http://www.serif.com/" style="fill-rule:evenodd;clip-rule:evenodd;stroke-linecap:round;stroke-linejoin:round;stroke-miterlimit:1.5;">
    <g>
        <g transform="matrix(1,0,0,1,-1.4569,5.42178)">
            <path d="M300.911,29.935C262.078,18.653 220.836,18.653 182.002,29.935C188.989,53.981 184.453,75.611 168.396,94.826C164.493,96.866 160.677,99.07 156.958,101.43C132.289,105.728 111.289,98.841 93.958,80.768C64.77,108.757 44.149,144.474 34.503,183.746C58.821,189.719 75.286,204.462 83.898,227.975C83.713,232.375 83.713,236.781 83.898,241.182C75.286,264.695 58.821,279.438 34.503,285.411C44.149,324.683 64.77,360.399 93.958,388.389C111.289,370.316 132.289,363.428 156.958,367.727C160.677,370.087 164.493,372.29 168.396,374.33C184.453,393.545 188.989,415.175 182.002,439.222C220.836,450.504 262.078,450.504 300.911,439.222C293.925,415.175 298.461,393.545 314.518,374.33C318.421,372.29 322.237,370.087 325.956,367.727C350.624,363.428 371.624,370.316 388.956,388.389C418.143,360.399 438.764,324.683 448.41,285.411C424.093,279.438 407.628,264.695 399.016,241.182C399.201,236.781 399.201,232.375 399.016,227.975C407.628,204.462 424.093,189.719 448.41,183.746C438.764,144.474 418.143,108.757 388.956,80.768C371.624,98.841 350.624,105.728 325.956,101.43C322.237,99.07 318.421,96.866 314.518,94.826C298.461,75.611 293.925,53.981 300.911,29.935ZM241.457,211.137C254.395,211.137 264.898,221.64 264.898,234.578C264.898,247.516 254.395,258.02 241.457,258.02C228.519,258.02 218.015,247.516 218.015,234.578C218.015,221.64 228.519,211.137 241.457,211.137Z" style="fill:rgb(235,235,235);stroke:black;stroke-width:1.89px;"/>
        </g>
        <g transform="matrix(1,0,0,1,-21.0674,-0.810285)">
            <circle cx="261.511" cy="116.074" r="46.794" style="fill:rgb(25,130,196);stroke:black;stroke-width:1.89px;"/>
        </g>
        <g transform="matrix(1,0,0,1,-129.646,61.5817)">
            <circle cx="261.511" cy="116.074" r="46.794" style="fill:rgb(255,202,58);stroke:black;stroke-width:1.89px;"/>
        </g>
        <g transform="matrix(1,0,0,1,-129.646,186.366)">
            <circle cx="261.511" cy="116.074" r="46.794" style="fill:rgb(106,76,147);stroke:black;stroke-width:1.89px;"/>
        </g>
        <g transform="matrix(1,0,0,1,-21.0674,249.568)">
            <circle cx="261.511" cy="116.074" r="46.794" style="fill:rgb(138,201,38);stroke:black;stroke-width:1.89px;"/>
        </g>
        <g transform="matrix(1,0,0,1,87.5108,187.176)">
            <circle cx="261.511" cy="116.074" r="46.794" style="fill:rgb(255,89,94);stroke:black;stroke-width:1.89px;"/>
        </g>
        <g transform="matrix(1,0,0,1,89.1314,60.7714)">
            <circle cx="261.511" cy="116.074" r="46.794" style="fill:rgb(248,255,19);stroke:black;stroke-width:1.89px;"/>
        </g>
    </g>
</svg>
